<svg xmlns="http://www.w3.org/2000/svg" width="500" height="500" viewBox="0 0 500 500" version="1.1"><path d="M 189.585 109.020 C 186.604 109.935, 184.773 111.824, 185.588 113.142 C 185.839 113.548, 187.634 113.215, 189.577 112.403 C 191.520 111.591, 194.773 111.056, 196.805 111.214 C 199.550 111.426, 200.500 111.114, 200.500 110 C 200.500 108.211, 194.094 107.636, 189.585 109.020 M 295.029 109.924 C 292.968 111.279, 294.158 112.101, 299.676 113.132 C 302.298 113.622, 306.572 115.135, 309.173 116.495 C 311.983 117.965, 314.149 118.569, 314.510 117.984 C 315.538 116.321, 313.965 114.874, 308.500 112.458 C 302.041 109.601, 296.971 108.648, 295.029 109.924 M 251.500 111.145 C 249.300 111.542, 246.713 111.642, 245.750 111.366 C 243.622 110.757, 243.579 111.557, 245.456 116.874 C 246.303 119.275, 246.498 121, 245.924 121 C 242.993 121, 238.029 117.783, 236.071 114.615 C 234.842 112.627, 233.199 111, 232.418 111 C 230.669 111, 230.668 110.961, 232.502 115.350 C 233.895 118.685, 233.859 119.183, 232.006 122.223 C 229.733 125.950, 229.528 128.349, 231.098 132.851 C 232.548 137.010, 234 136.858, 234 132.547 C 234 128.127, 235.792 124.201, 238.152 123.452 C 244.679 121.380, 247.517 129.164, 247.465 149 C 247.413 168.448, 244.573 172.870, 235.534 167.573 C 233.112 166.153, 228.288 164.268, 224.815 163.382 C 215.884 161.106, 213.065 159.400, 211.316 155.213 C 208.871 149.361, 209.998 142.250, 214.907 132.569 C 217.907 126.653, 219.049 123.258, 218.821 120.935 C 218.359 116.211, 216.385 116.194, 215.631 120.907 C 214.554 127.641, 209.601 129.534, 201 126.500 C 198.662 125.675, 195.512 125, 194 125 C 189.743 125, 182.827 127.794, 179.673 130.789 C 176.428 133.870, 172.986 140.046, 173.029 142.710 C 173.052 144.106, 173.658 143.804, 175.779 141.340 C 177.276 139.602, 179.400 136.699, 180.500 134.889 C 184.508 128.293, 194.313 125.588, 201.500 129.096 L 204.500 130.560 204.172 144.779 L 203.843 158.997 206.672 161.822 C 208.227 163.376, 211.750 165.471, 214.500 166.478 C 230.270 172.251, 234.613 174.498, 239.574 179.451 C 246.951 186.817, 248.003 190.690, 247.988 210.428 C 247.969 235.978, 243.679 247.284, 232.361 251.606 C 225.540 254.211, 211.941 253.214, 204.934 249.596 C 194.634 244.276, 190.795 238.908, 185.408 222.286 C 181.820 211.218, 178.475 204.793, 172.040 196.612 C 167.839 191.271, 166.723 187.737, 167.662 182.750 C 169.482 173.090, 180.046 171.314, 188.629 179.225 C 191.290 181.679, 193.555 183.001, 194.484 182.644 C 197.234 181.589, 196.067 178.991, 191.643 176.319 C 186.286 173.083, 184.907 170.967, 184.116 164.766 C 183.452 159.558, 181.712 157.929, 181.162 162 C 180.712 165.331, 177.610 168.526, 172.355 171.070 C 168.100 173.130, 164.932 175.866, 159.959 181.775 C 157.552 184.637, 155.587 185.472, 145.266 188.022 C 138.778 189.625, 136.143 192.515, 133.946 200.437 C 132.768 204.688, 130.980 208.455, 129.320 210.188 C 127.362 212.231, 126.916 213.316, 127.706 214.106 C 129.821 216.221, 132.907 214.067, 134.034 209.690 C 136.870 198.671, 139.486 194.351, 145.069 191.464 C 154.426 186.626, 169.419 194.609, 175.084 207.446 C 177.633 213.221, 178.124 222.022, 176.158 226.680 C 174.734 230.052, 169.913 233, 165.821 233 C 162.899 233, 159 235.604, 159 237.557 C 159 240.297, 164.174 239.231, 174.667 234.330 C 180.350 231.676, 183.122 232.794, 186.500 239.105 C 190.655 246.867, 194.869 251.345, 201.592 255.139 C 207.083 258.238, 207.954 258.409, 221.418 259.031 C 237.795 259.787, 243.588 261.635, 246.970 267.182 C 248.803 270.188, 248.993 272.196, 248.996 288.554 L 249 306.608 246.052 311.258 C 242.234 317.278, 236.440 320.368, 229.297 320.193 C 222.758 320.034, 218.707 318.324, 213 313.313 C 202.625 304.205, 188.756 296.904, 177.163 294.447 C 173.498 293.670, 165.325 293.016, 159 292.993 C 144.867 292.942, 140.240 291.930, 133.413 287.398 C 125.660 282.252, 117.082 269.556, 118.631 265.519 C 119.553 263.116, 124.401 261, 128.982 261 C 134.640 261, 139.872 263.403, 144.001 267.897 C 147.625 271.841, 151.139 272.918, 166.250 274.714 C 170.832 275.259, 171 275.187, 171 272.707 C 171 269.372, 168.563 268.579, 159.273 268.891 L 152.046 269.134 146.762 263.808 C 140.490 257.486, 136.524 256.028, 127.556 256.748 C 123.950 257.037, 120.970 256.875, 120.934 256.387 C 120.897 255.899, 120.755 252.575, 120.619 249 C 120.419 243.789, 119.640 241.069, 116.692 235.288 C 112.477 227.025, 108.425 213.881, 107.458 205.335 C 106.475 196.640, 108.228 191.357, 113.707 186.500 C 116.189 184.300, 120.533 180.110, 123.360 177.190 C 133.588 166.624, 137.739 162.476, 139.354 161.211 C 140.259 160.501, 141 159.458, 141 158.892 C 141 157.673, 135.793 161.110, 131.336 165.271 C 127.712 168.655, 126 168.201, 126 163.858 C 126 161.889, 125.564 160.975, 124.750 161.238 C 123.577 161.618, 121.930 165.947, 120.559 172.251 C 120.045 174.615, 119.120 175.236, 113.981 176.665 C 108.206 178.271, 106.055 180, 109.833 180 C 113.177 180, 112.974 181.222, 108.857 185.884 C 104.121 191.245, 102.995 193.737, 103.013 198.815 C 103.036 205.312, 106.636 220.173, 111.002 231.794 C 113.335 238.006, 114.963 243.370, 114.618 243.715 C 114.274 244.059, 112.981 243.423, 111.746 242.301 C 109.972 240.689, 107.599 240.133, 100.446 239.655 L 91.392 239.050 88.098 244.485 C 83.247 252.490, 81.685 258.831, 82.207 268.395 C 82.751 278.351, 86.087 285.795, 93.531 293.667 C 99.172 299.632, 103.413 300.771, 105.793 296.959 C 107.674 293.947, 106.441 292.978, 101.578 293.644 L 97.244 294.238 93.229 286.217 C 86.859 273.490, 85.461 260.153, 89.586 251.460 C 90.696 249.120, 92.752 247.306, 96.290 245.543 C 102.828 242.285, 106.383 242.292, 109.661 245.570 C 112.005 247.914, 112.187 248.681, 111.738 254.320 C 111.109 262.226, 113.202 268.770, 120.510 281.742 C 123.530 287.101, 126 292.211, 126 293.095 C 126 293.980, 124.892 296.233, 123.539 298.102 C 114.663 310.355, 113.825 317.894, 120.300 327.248 C 122.300 330.136, 126.088 333.947, 128.718 335.716 C 136.987 341.277, 152 345.974, 152 343 C 152 342.450, 150.537 341.998, 148.750 341.996 C 142.138 341.989, 134.701 334.296, 137.054 329.899 C 137.972 328.184, 146.586 323.773, 151.235 322.637 C 154.397 321.865, 155.946 317.844, 153.989 315.487 C 152.109 313.221, 150 313.692, 150 316.378 C 150 319.265, 148.833 320.300, 143 322.583 C 140.525 323.551, 137.022 325.616, 135.215 327.172 C 133.409 328.727, 131.281 330, 130.488 330 C 127.773 330, 125.705 325.110, 125.283 317.690 C 124.943 311.704, 125.218 309.954, 126.928 307.241 C 129.518 303.131, 134.023 300.364, 139.353 299.608 C 160.817 296.566, 177.403 297.130, 185.855 301.189 C 191.668 303.980, 198 310.107, 198 312.941 C 198 318.223, 189.479 326, 183.692 326 C 178.305 326, 173.635 329.983, 175.494 332.991 C 177.425 336.114, 188.613 330.315, 196.453 322.128 C 198.627 319.858, 200.781 318, 201.238 318 C 201.696 318, 202.993 320.137, 204.121 322.750 L 206.171 327.500 198.731 334.541 C 186.128 346.469, 174.161 350.791, 156.684 349.727 C 151.633 349.419, 146.262 348.691, 144.750 348.108 C 142.671 347.308, 141.996 347.348, 141.985 348.275 C 141.975 349.052, 141.701 349.129, 141.235 348.485 C 140.831 347.927, 137.125 346.421, 133 345.138 C 128.875 343.856, 122.125 341.039, 118 338.878 C 113.875 336.717, 111.625 335.877, 113 337.011 C 116.656 340.027, 125.659 344.493, 132.250 346.561 C 135.412 347.553, 138 348.637, 138 348.970 C 138 349.302, 138.930 349.644, 140.066 349.730 C 141.203 349.816, 144.690 350.438, 147.816 351.112 C 150.942 351.787, 157.325 352.350, 162 352.364 C 173.177 352.397, 182.198 349.589, 192 343.027 C 196.125 340.265, 200.175 338.036, 201 338.073 C 201.981 338.117, 201.815 338.408, 200.522 338.913 C 198.583 339.671, 198.586 339.708, 200.672 340.825 C 202.375 341.736, 202.914 341.667, 203.369 340.482 C 204.097 338.583, 205.667 338.557, 205.667 340.444 C 205.667 341.239, 205.179 341.801, 204.583 341.694 C 202.333 341.290, 204.129 346.168, 208.643 352.714 C 214.423 361.097, 223.105 379.144, 225.858 388.500 C 228.329 396.893, 231 411.768, 231 417.131 C 231 419.518, 231.479 421.030, 232.250 421.078 C 232.938 421.121, 241.375 421.202, 251 421.257 L 268.500 421.358 269.243 413.929 C 270.825 398.101, 276.119 379.012, 278.935 378.985 C 280.016 378.974, 280.135 378.737, 279.319 378.218 C 277.759 377.226, 283.943 364.010, 290.912 353.441 C 293.748 349.139, 295.851 345.053, 295.585 344.361 C 295.285 343.579, 295.656 343.314, 296.562 343.662 C 297.631 344.073, 297.840 343.747, 297.341 342.447 C 296.875 341.231, 297.029 340.900, 297.830 341.395 C 299.475 342.411, 299.285 340.851, 297.443 338.223 C 296.587 337, 296.254 336, 296.703 336 C 297.152 336, 298.092 336.917, 298.792 338.039 C 299.492 339.160, 300.497 339.811, 301.024 339.485 C 301.552 339.159, 304.021 340.295, 306.512 342.008 C 319.051 350.635, 330.836 353.611, 345.752 351.916 C 360.003 350.296, 380.032 342.927, 387.500 336.556 C 389.630 334.739, 388.469 335.164, 383.500 338.020 C 364.499 348.944, 336.453 352.976, 320.767 347.039 C 310.635 343.204, 295 330.886, 295 326.738 C 295 324.200, 297.624 319.358, 299.360 318.692 C 301.105 318.022, 305.786 320.501, 310.056 324.356 C 311.796 325.926, 315.758 328.401, 318.860 329.856 C 323.976 332.255, 325.614 332.500, 336.500 332.500 C 346.500 332.500, 349.167 332.167, 352.500 330.500 C 354.700 329.400, 356.645 327.712, 356.823 326.750 C 357.274 324.313, 351.547 324.413, 342.500 327 C 330.704 330.373, 324.379 329.509, 315.877 323.359 C 310.797 319.685, 305.203 310.518, 306.299 307.663 C 307.506 304.517, 315.833 300.299, 325.101 298.137 C 330.122 296.966, 337.666 294.465, 341.865 292.580 C 350.228 288.825, 362.221 285.995, 369.708 286.010 C 372.613 286.016, 376.475 286.939, 379.513 288.354 C 382.271 289.638, 386.201 291.241, 388.248 291.917 C 390.294 292.592, 392.876 294.298, 393.984 295.707 C 396.699 299.158, 396.679 306.375, 393.942 310.863 C 391.609 314.689, 391.902 315.658, 394.904 314.051 C 398.130 312.325, 399.999 307.652, 400.006 301.300 C 400.013 293.936, 401.339 289.197, 405.215 282.683 C 408.259 277.568, 410.270 268, 408.302 268 C 406.495 268, 403.263 272.513, 401.498 277.500 C 399.222 283.930, 395.655 287.364, 392.109 286.539 C 386.855 285.315, 384.234 283.809, 383.125 281.375 C 381.772 278.405, 382.407 275.461, 386.083 267.672 C 388.527 262.495, 388.775 261.043, 388.306 254.672 C 387.808 247.915, 387.927 247.361, 390.366 245.097 C 393.607 242.089, 396.672 242.141, 405.195 245.349 C 408.840 246.721, 412.057 247.609, 412.344 247.323 C 412.630 247.036, 411.923 244.995, 410.772 242.788 L 408.680 238.773 401.895 239.442 C 395.868 240.036, 394.881 239.881, 393.055 238.055 C 390.902 235.902, 390.745 234.985, 390.982 225.925 C 391.138 219.921, 389.625 217.439, 386.532 218.626 C 385.008 219.211, 384.890 220.294, 385.506 228.073 C 385.939 233.551, 385.798 238.111, 385.130 240.180 C 384.541 242.006, 383.832 245.915, 383.555 248.866 C 383.278 251.818, 382.548 254.839, 381.933 255.580 C 381.181 256.486, 377.818 257.021, 371.658 257.214 L 362.500 257.500 367.491 260 C 373.889 263.205, 375.868 266.491, 374.046 270.889 C 371.992 275.848, 368.013 277.996, 358.121 279.482 C 348.731 280.893, 345.239 282.285, 338 287.502 C 335.525 289.286, 329 292.213, 323.500 294.006 C 310.177 298.351, 292.620 307.424, 287.509 312.606 C 278.103 322.141, 266.552 323.542, 257.832 316.205 C 251.975 311.277, 251.046 307.499, 251.024 288.500 C 250.999 268.106, 251.726 265.815, 259.359 262.210 C 263.338 260.331, 266.775 259.774, 278.359 259.131 C 293.278 258.302, 298.183 256.884, 304 251.717 C 309.864 246.508, 311 244.108, 311 236.930 C 311 228.132, 312.171 225, 315.461 225 C 317.282 225, 318.699 226.099, 320.619 229.001 C 322.076 231.201, 324.894 233.997, 326.884 235.214 C 328.873 236.430, 331.126 238.035, 331.890 238.781 C 335.912 242.705, 340 243.811, 340 240.976 C 340 238.842, 333.785 233.252, 330.227 232.186 C 327.493 231.367, 325.426 229.729, 323.179 226.600 C 318.531 220.127, 318.883 216.902, 325.049 209.500 C 332.046 201.099, 334.213 191.180, 330.583 184.161 C 329.712 182.477, 329 180.627, 329 180.050 C 329 178.265, 331.413 178.980, 333.208 181.296 C 340.219 190.345, 339.689 190, 346.589 190 C 350.115 190, 353 189.601, 353 189.114 C 353 188.009, 347.141 185.178, 343.241 184.398 C 341.552 184.060, 339.655 182.694, 338.742 181.157 C 336.322 177.087, 332.088 173.524, 325.609 170.107 C 319.064 166.655, 316.823 166.304, 315.040 168.452 C 313.064 170.833, 314.263 173.384, 318.279 175.346 C 325.389 178.820, 328.754 190.202, 325.536 199.891 C 323.877 204.887, 321.644 207.698, 313.551 214.980 C 308.437 219.583, 306.273 224.797, 305.450 234.500 C 305.077 238.900, 304.203 243.412, 303.508 244.528 C 301.461 247.815, 291.742 251.944, 283.215 253.150 C 267.645 255.352, 258.386 249.570, 253.909 234.851 C 252.043 228.715, 251.659 225.005, 251.587 212.404 C 251.518 200.518, 251.812 196.932, 252.965 195.542 C 255.522 192.461, 258.178 192.122, 263.485 194.202 C 269.077 196.394, 272.682 196.075, 276.990 193.007 C 283.225 188.567, 289.752 172.056, 290.590 158.602 C 291.729 140.319, 295.664 133, 304.354 133 C 309.255 133, 311.457 134.308, 319.224 141.837 C 322.372 144.889, 325.226 147.108, 325.565 146.768 C 326.691 145.642, 324.843 141.832, 321.234 137.837 C 314.750 130.661, 309.870 129.332, 298.500 131.649 C 286.506 134.094, 286.500 134.104, 286.500 151.778 C 286.500 164.716, 286.222 167.227, 284.207 172.500 C 281.282 180.152, 275.737 187.777, 272.505 188.588 C 266.280 190.150, 259.139 184.772, 254.827 175.272 C 252.067 169.190, 252 168.629, 252 151.404 L 252 133.765 255.882 129.882 C 260.338 125.427, 263.871 124.871, 267.116 128.116 C 269.244 130.244, 269.330 133.377, 267.435 139.750 C 266.459 143.036, 268.820 142.595, 270.112 139.250 C 270.696 137.738, 270.993 133.893, 270.770 130.706 C 270.454 126.178, 269.816 124.361, 267.848 122.394 C 264.674 119.219, 260.198 119.011, 256.209 121.851 C 254.549 123.033, 252.934 124, 252.621 124 C 251.740 124, 253.118 117.832, 254.704 114.682 C 256.637 110.840, 256.152 110.305, 251.500 111.145 M 149.208 128.952 C 145.930 131.704, 145.918 131.748, 146.519 138.608 C 147.451 149.243, 149.894 159.745, 151.586 160.395 C 153.588 161.163, 154.614 158.213, 153.158 155.881 C 151.624 153.426, 151.680 148.319, 153.250 147.334 C 153.938 146.903, 155.287 146.679, 156.250 146.838 C 159.116 147.309, 158.234 144.978, 155.138 143.898 C 150.894 142.419, 149.926 139.414, 151.606 132.939 C 152.378 129.963, 152.895 127.226, 152.755 126.858 C 152.615 126.489, 151.018 127.431, 149.208 128.952 M 346.556 128.724 C 346.889 130.251, 347.627 132.729, 348.195 134.231 C 349.802 138.484, 348.430 141.922, 344.464 143.579 C 340.426 145.267, 339.709 147.541, 343.516 146.585 C 347.165 145.669, 348.800 150.100, 346.552 154.814 C 344.889 158.300, 345.194 160, 347.481 160 C 349.841 160, 352.534 148.029, 352.880 136 C 353.032 130.728, 352.892 130.406, 349.494 128.224 L 345.949 125.948 346.556 128.724 M 363 162.596 C 363 162.923, 363.817 164.386, 364.816 165.846 C 365.815 167.306, 367.933 171.126, 369.523 174.336 C 371.113 177.546, 375.079 183.171, 378.337 186.836 C 381.594 190.501, 384.882 194.963, 385.643 196.750 C 387.114 200.205, 390 201.189, 390 198.237 C 390 197.267, 388.425 194.135, 386.500 191.276 C 384.575 188.418, 383 185.780, 383 185.414 C 383 185.049, 384.350 185.020, 386 185.350 C 390.223 186.195, 389.764 184.312, 385.250 182.276 C 378.332 179.154, 377 177.319, 377 170.907 C 377 167.748, 376.727 164.452, 376.393 163.582 C 375.416 161.036, 373 161.712, 373 164.531 C 373 168.492, 370.176 168.799, 367.319 165.149 C 365.087 162.297, 363 161.063, 363 162.596 M 289.534 204.957 C 285.504 210.008, 282.695 212.484, 279.278 213.995 C 272.980 216.781, 271 218.744, 271 222.200 C 271 225.229, 274.828 230, 277.259 230 C 278.001 230, 280.862 226.963, 283.617 223.250 C 286.372 219.537, 290.623 213.821, 293.063 210.546 C 300.825 200.132, 301.586 198, 297.543 198 C 295.700 198, 293.696 199.741, 289.534 204.957 M 205.667 199.667 C 204.186 201.147, 205.163 203.744, 207.983 205.830 C 211.983 208.787, 213.842 212.669, 215.561 221.657 C 216.353 225.792, 217 229.361, 217 229.588 C 217 229.815, 217.450 230, 218 230 C 218.550 230, 219 227.779, 219 225.065 C 219 219.213, 220.173 215.771, 223.528 211.784 C 224.888 210.168, 226 208.417, 226 207.892 C 226 206.113, 223.060 205.797, 221.454 207.403 C 219.169 209.688, 217.165 209.383, 214.674 206.371 C 208.846 199.324, 207.220 198.113, 205.667 199.667 M 366.771 206.750 C 365.925 207.713, 364.254 210.446, 363.058 212.825 C 361.463 215.996, 359.764 217.658, 356.691 219.053 C 354.386 220.100, 351.705 220.966, 350.733 220.978 C 349.150 220.998, 349.237 221.534, 351.567 226.131 C 353.888 230.712, 357.866 236.090, 358.082 234.939 C 358.127 234.697, 358.375 233.150, 358.633 231.500 C 359.393 226.634, 362.820 220.852, 368.212 215.337 C 372.452 211.001, 373.156 209.759, 372.611 207.587 C 371.850 204.554, 369.054 204.153, 366.771 206.750 M 144.381 216.910 C 140.721 219.141, 139 223.391, 139 230.199 C 139 236.458, 142.160 242.922, 145.250 242.985 C 145.662 242.993, 146 239.386, 146 234.968 C 146 223.208, 148.071 219.188, 153.750 219.925 C 155.730 220.182, 155.202 217.178, 153.066 216.035 C 150.247 214.527, 147.901 214.763, 144.381 216.910 M 282.280 275.946 C 275.497 280.133, 270.972 289.572, 274.200 292.800 C 276.295 294.895, 277.928 294.111, 279.509 290.250 C 280.354 288.188, 283.325 284.370, 286.112 281.766 C 288.898 279.162, 290.990 276.462, 290.762 275.766 C 290.088 273.714, 285.747 273.806, 282.280 275.946 M 202.619 286.808 C 201.873 288.015, 204.623 290.411, 216.468 298.876 C 221.951 302.794, 227.452 306, 228.692 306 C 230.179 306, 231.469 304.994, 232.474 303.050 C 235.410 297.372, 233.774 292.084, 230.108 295.402 C 229.137 296.281, 227.195 297, 225.792 297 C 223.339 297, 214.509 292.881, 206.838 288.160 C 204.824 286.921, 202.925 286.312, 202.619 286.808 M 351.144 304.551 C 344.309 306.417, 344 306.633, 344 309.540 C 344 312.725, 347.608 313.650, 353.547 311.987 C 357.545 310.868, 358.652 310.970, 364.113 312.961 C 372.186 315.904, 373.532 314.781, 369.811 308.211 C 367.191 303.583, 367.050 303.496, 361.822 303.294 C 358.895 303.181, 354.090 303.746, 351.144 304.551" stroke="none" fill="#db7f6a" fill-rule="evenodd"/><path d="M 297.443 338.223 C 299.285 340.851, 299.475 342.411, 297.830 341.395 C 297.029 340.900, 296.875 341.231, 297.341 342.447 C 297.840 343.747, 297.631 344.073, 296.562 343.662 C 295.656 343.314, 295.285 343.579, 295.585 344.361 C 295.851 345.053, 293.748 349.139, 290.912 353.441 C 288.076 357.742, 284.039 364.913, 281.941 369.376 C 278.683 376.307, 278.349 377.616, 279.654 378.346 C 282.067 379.697, 300.654 380.634, 309.010 379.826 C 317.884 378.968, 331.584 374.914, 338 371.247 C 345.349 367.048, 353.277 360.409, 357.401 355.001 C 359.527 352.214, 361.064 349.731, 360.817 349.484 C 360.570 349.236, 358.822 349.481, 356.934 350.027 C 350.538 351.877, 337.519 352.871, 330.727 352.028 C 323.572 351.141, 314.072 347.210, 306.512 342.008 C 304.021 340.295, 301.552 339.159, 301.024 339.485 C 300.497 339.811, 299.492 339.160, 298.792 338.039 C 298.092 336.917, 297.152 336, 296.703 336 C 296.254 336, 296.587 337, 297.443 338.223 M 192 343.027 C 181.931 349.769, 173.173 352.435, 161.500 352.312 C 156.550 352.260, 149.463 351.549, 145.750 350.731 C 142.037 349.913, 139 349.579, 139 349.987 C 139 351.058, 142.694 355.825, 147.414 360.845 C 155.692 369.648, 169.834 377.390, 182.500 380.053 C 190.313 381.696, 205.595 381.714, 214.787 380.093 C 221.550 378.899, 222.026 378.652, 221.405 376.653 C 220.055 372.303, 213.028 359.167, 208.559 352.640 C 204.114 346.147, 202.351 341.294, 204.583 341.694 C 205.179 341.801, 205.667 341.239, 205.667 340.444 C 205.667 338.557, 204.097 338.583, 203.369 340.482 C 202.914 341.667, 202.375 341.736, 200.672 340.825 C 198.586 339.708, 198.583 339.671, 200.522 338.913 C 201.815 338.408, 201.981 338.117, 201 338.073 C 200.175 338.036, 196.125 340.265, 192 343.027" stroke="none" fill="#814639" fill-rule="evenodd"/><path d="M 203.500 97.964 C 190.381 100.773, 167.668 113.395, 144.887 130.534 C 112.344 155.019, 103.956 165.046, 90.312 195.774 C 85.766 206.010, 85.533 206.980, 85.205 217 C 84.887 226.715, 85.053 227.859, 87.430 232.303 C 90.611 238.249, 90.617 239.198, 87.500 243.785 C 86.125 245.809, 85 247.921, 85 248.480 C 85 249.039, 86.445 247.146, 88.211 244.274 L 91.423 239.052 100.461 239.656 C 107.600 240.133, 109.972 240.689, 111.746 242.301 C 112.981 243.423, 114.274 244.059, 114.618 243.715 C 114.963 243.370, 113.335 238.006, 111.002 231.794 C 106.636 220.173, 103.036 205.312, 103.013 198.815 C 102.995 193.737, 104.121 191.245, 108.857 185.884 C 112.974 181.222, 113.177 180, 109.833 180 C 106.055 180, 108.206 178.271, 113.981 176.665 C 119.120 175.236, 120.045 174.615, 120.559 172.251 C 121.930 165.947, 123.577 161.618, 124.750 161.238 C 125.564 160.975, 126 161.889, 126 163.858 C 126 168.201, 127.712 168.655, 131.336 165.271 C 135.793 161.110, 141 157.673, 141 158.892 C 141 159.458, 140.248 160.501, 139.329 161.211 C 138.410 161.920, 135.372 164.890, 132.579 167.810 C 124.339 176.425, 118.460 182.239, 113.681 186.500 C 108.230 191.360, 106.477 196.664, 107.458 205.335 C 108.425 213.881, 112.477 227.025, 116.692 235.288 C 119.640 241.069, 120.419 243.789, 120.619 249 C 120.755 252.575, 120.897 255.899, 120.934 256.387 C 120.970 256.875, 123.950 257.037, 127.556 256.748 C 136.524 256.028, 140.490 257.486, 146.762 263.808 L 152.046 269.134 159.273 268.891 C 168.563 268.579, 171 269.372, 171 272.707 C 171 275.187, 170.832 275.259, 166.250 274.714 C 151.139 272.918, 147.625 271.841, 144.001 267.897 C 139.872 263.403, 134.640 261, 128.982 261 C 124.401 261, 119.553 263.116, 118.631 265.519 C 117.082 269.556, 125.660 282.252, 133.413 287.398 C 140.240 291.930, 144.867 292.942, 159 292.993 C 165.325 293.016, 173.498 293.670, 177.163 294.447 C 188.756 296.904, 202.625 304.205, 213 313.313 C 218.707 318.324, 222.758 320.034, 229.297 320.193 C 236.440 320.368, 242.234 317.278, 246.052 311.258 L 249 306.608 248.996 288.554 C 248.993 272.196, 248.803 270.188, 246.970 267.182 C 243.588 261.635, 237.795 259.787, 221.418 259.031 C 207.954 258.409, 207.083 258.238, 201.592 255.139 C 194.869 251.345, 190.655 246.867, 186.500 239.105 C 183.122 232.794, 180.350 231.676, 174.667 234.330 C 164.174 239.231, 159 240.297, 159 237.557 C 159 235.604, 162.899 233, 165.821 233 C 169.913 233, 174.734 230.052, 176.158 226.680 C 178.124 222.022, 177.633 213.221, 175.084 207.446 C 169.419 194.609, 154.426 186.626, 145.069 191.464 C 139.486 194.351, 136.870 198.671, 134.034 209.690 C 132.907 214.067, 129.821 216.221, 127.706 214.106 C 126.916 213.316, 127.362 212.231, 129.320 210.188 C 130.980 208.455, 132.768 204.688, 133.946 200.437 C 136.143 192.515, 138.778 189.625, 145.266 188.022 C 155.587 185.472, 157.552 184.637, 159.959 181.775 C 164.932 175.866, 168.100 173.130, 172.355 171.070 C 177.487 168.586, 180.699 165.355, 181.162 162.210 C 181.775 158.055, 183.489 159.412, 184.116 164.550 C 184.899 170.961, 186.238 173.054, 191.643 176.319 C 196.067 178.991, 197.234 181.589, 194.484 182.644 C 193.555 183.001, 191.290 181.679, 188.629 179.225 C 180.046 171.314, 169.482 173.090, 167.662 182.750 C 166.723 187.737, 167.839 191.271, 172.040 196.612 C 178.475 204.793, 181.820 211.218, 185.408 222.286 C 190.795 238.908, 194.634 244.276, 204.934 249.596 C 211.941 253.214, 225.540 254.211, 232.361 251.606 C 243.679 247.284, 247.969 235.978, 247.988 210.428 C 248.003 190.690, 246.951 186.817, 239.574 179.451 C 234.613 174.498, 230.270 172.251, 214.500 166.478 C 211.750 165.471, 208.227 163.376, 206.672 161.822 L 203.843 158.997 204.172 144.779 L 204.500 130.560 201.500 129.096 C 194.313 125.588, 184.508 128.293, 180.500 134.889 C 179.400 136.699, 177.276 139.602, 175.779 141.340 C 173.658 143.804, 173.052 144.106, 173.029 142.710 C 172.986 140.046, 176.428 133.870, 179.673 130.789 C 182.827 127.794, 189.743 125, 194 125 C 195.512 125, 198.662 125.675, 201 126.500 C 209.601 129.534, 214.554 127.641, 215.631 120.907 C 216.385 116.194, 218.359 116.211, 218.821 120.935 C 219.049 123.258, 217.907 126.653, 214.907 132.569 C 209.998 142.250, 208.871 149.361, 211.316 155.213 C 213.065 159.400, 215.884 161.106, 224.815 163.382 C 228.288 164.268, 233.112 166.153, 235.534 167.573 C 244.573 172.870, 247.413 168.448, 247.465 149 C 247.517 129.164, 244.679 121.380, 238.152 123.452 C 235.792 124.201, 234 128.127, 234 132.547 C 234 136.858, 232.548 137.010, 231.098 132.851 C 229.528 128.349, 229.733 125.950, 232.006 122.223 C 233.859 119.183, 233.895 118.685, 232.502 115.350 C 230.668 110.961, 230.669 111, 232.418 111 C 233.199 111, 234.842 112.627, 236.071 114.615 C 238.029 117.783, 242.993 121, 245.924 121 C 246.498 121, 246.303 119.275, 245.456 116.874 C 243.618 111.665, 243.626 110.643, 245.502 111.362 C 246.328 111.679, 249.028 111.561, 251.502 111.099 C 256.406 110.182, 256.756 110.595, 254.643 114.800 C 253.106 117.858, 251.756 124, 252.621 124 C 252.934 124, 254.549 123.033, 256.209 121.851 C 260.198 119.011, 264.674 119.219, 267.848 122.394 C 269.816 124.361, 270.454 126.178, 270.770 130.706 C 270.993 133.893, 270.696 137.738, 270.112 139.250 C 268.820 142.595, 266.459 143.036, 267.435 139.750 C 269.330 133.377, 269.244 130.244, 267.116 128.116 C 263.871 124.871, 260.338 125.427, 255.882 129.882 L 252 133.765 252 151.404 C 252 168.629, 252.067 169.190, 254.827 175.272 C 259.139 184.772, 266.280 190.150, 272.505 188.588 C 275.737 187.777, 281.282 180.152, 284.207 172.500 C 286.222 167.227, 286.500 164.716, 286.500 151.778 C 286.500 134.104, 286.506 134.094, 298.500 131.649 C 309.870 129.332, 314.750 130.661, 321.234 137.837 C 324.843 141.832, 326.691 145.642, 325.565 146.768 C 325.226 147.108, 322.372 144.889, 319.224 141.837 C 311.457 134.308, 309.255 133, 304.354 133 C 295.664 133, 291.729 140.319, 290.590 158.602 C 289.752 172.056, 283.225 188.567, 276.990 193.007 C 272.682 196.075, 269.077 196.394, 263.485 194.202 C 258.178 192.122, 255.522 192.461, 252.965 195.542 C 251.812 196.932, 251.518 200.518, 251.587 212.404 C 251.659 225.005, 252.043 228.715, 253.909 234.851 C 258.386 249.570, 267.645 255.352, 283.215 253.150 C 291.742 251.944, 301.461 247.815, 303.508 244.528 C 304.203 243.412, 305.077 238.900, 305.450 234.500 C 306.273 224.797, 308.437 219.583, 313.551 214.980 C 321.644 207.698, 323.877 204.887, 325.536 199.891 C 328.754 190.202, 325.389 178.820, 318.279 175.346 C 314.263 173.384, 313.064 170.833, 315.040 168.452 C 316.823 166.304, 319.064 166.655, 325.609 170.107 C 332.088 173.524, 336.322 177.087, 338.742 181.157 C 339.655 182.694, 341.552 184.060, 343.241 184.398 C 347.141 185.178, 353 188.009, 353 189.114 C 353 189.601, 350.115 190, 346.589 190 C 339.689 190, 340.219 190.345, 333.208 181.296 C 331.413 178.980, 329 178.265, 329 180.050 C 329 180.627, 329.712 182.477, 330.583 184.161 C 334.213 191.180, 332.046 201.099, 325.049 209.500 C 318.883 216.902, 318.531 220.127, 323.179 226.600 C 325.426 229.729, 327.493 231.367, 330.227 232.186 C 333.785 233.252, 340 238.842, 340 240.976 C 340 243.811, 335.912 242.705, 331.890 238.781 C 331.126 238.035, 328.873 236.430, 326.884 235.214 C 324.894 233.997, 322.076 231.201, 320.619 229.001 C 318.699 226.099, 317.282 225, 315.461 225 C 312.171 225, 311 228.132, 311 236.930 C 311 244.108, 309.864 246.508, 304 251.717 C 298.183 256.884, 293.278 258.302, 278.359 259.131 C 266.775 259.774, 263.338 260.331, 259.359 262.210 C 251.726 265.815, 250.999 268.106, 251.024 288.500 C 251.046 307.499, 251.975 311.277, 257.832 316.205 C 266.552 323.542, 278.103 322.141, 287.509 312.606 C 292.620 307.424, 310.177 298.351, 323.500 294.006 C 329 292.213, 335.525 289.286, 338 287.502 C 345.239 282.285, 348.731 280.893, 358.121 279.482 C 368.013 277.996, 371.992 275.848, 374.046 270.889 C 375.868 266.491, 373.889 263.205, 367.491 260 L 362.500 257.500 371.658 257.214 C 377.818 257.021, 381.181 256.486, 381.933 255.580 C 382.548 254.839, 383.278 251.818, 383.555 248.866 C 383.832 245.915, 384.541 242.006, 385.130 240.180 C 385.798 238.111, 385.939 233.551, 385.506 228.073 C 384.890 220.294, 385.008 219.211, 386.532 218.626 C 389.830 217.360, 391.046 219.826, 390.898 227.478 C 390.759 234.647, 391.971 238.835, 394.285 239.183 C 397.788 239.709, 409.733 239.400, 409.364 238.793 C 409.128 238.405, 410.187 235.705, 411.718 232.793 C 417.300 222.174, 414.454 205.138, 403.506 183.626 C 392.229 161.471, 384.481 153.152, 354.500 131.006 C 316.798 103.157, 293.627 93.660, 274.996 98.417 C 271.423 99.329, 266.925 101.185, 265 102.540 C 263.075 103.896, 259.909 106.124, 257.965 107.493 C 255.474 109.246, 252.894 110.048, 249.229 110.207 C 244.455 110.415, 243.720 110.133, 240.264 106.769 C 234.135 100.802, 226.012 97.651, 216 97.357 C 211.325 97.220, 205.700 97.493, 203.500 97.964 M 189.585 109.020 C 186.604 109.935, 184.773 111.824, 185.588 113.142 C 185.839 113.548, 187.634 113.215, 189.577 112.403 C 191.520 111.591, 194.773 111.056, 196.805 111.214 C 199.550 111.426, 200.500 111.114, 200.500 110 C 200.500 108.211, 194.094 107.636, 189.585 109.020 M 295.029 109.924 C 292.968 111.279, 294.158 112.101, 299.676 113.132 C 302.298 113.622, 306.572 115.135, 309.173 116.495 C 311.983 117.965, 314.149 118.569, 314.510 117.984 C 315.538 116.321, 313.965 114.874, 308.500 112.458 C 302.041 109.601, 296.971 108.648, 295.029 109.924 M 149.208 128.952 C 145.930 131.704, 145.918 131.748, 146.519 138.608 C 147.451 149.243, 149.894 159.745, 151.586 160.395 C 153.588 161.163, 154.614 158.213, 153.158 155.881 C 151.624 153.426, 151.680 148.319, 153.250 147.334 C 153.938 146.903, 155.287 146.679, 156.250 146.838 C 159.116 147.309, 158.234 144.978, 155.138 143.898 C 150.894 142.419, 149.926 139.414, 151.606 132.939 C 152.378 129.963, 152.895 127.226, 152.755 126.858 C 152.615 126.489, 151.018 127.431, 149.208 128.952 M 346.556 128.724 C 346.889 130.251, 347.627 132.729, 348.195 134.231 C 349.802 138.484, 348.430 141.922, 344.464 143.579 C 340.426 145.267, 339.709 147.541, 343.516 146.585 C 347.165 145.669, 348.800 150.100, 346.552 154.814 C 344.889 158.300, 345.194 160, 347.481 160 C 349.841 160, 352.534 148.029, 352.880 136 C 353.032 130.728, 352.892 130.406, 349.494 128.224 L 345.949 125.948 346.556 128.724 M 363 162.596 C 363 162.923, 363.817 164.386, 364.816 165.846 C 365.815 167.306, 367.933 171.126, 369.523 174.336 C 371.113 177.546, 375.079 183.171, 378.337 186.836 C 381.594 190.501, 384.882 194.963, 385.643 196.750 C 387.114 200.205, 390 201.189, 390 198.237 C 390 197.267, 388.425 194.135, 386.500 191.276 C 384.575 188.418, 383 185.780, 383 185.414 C 383 185.049, 384.350 185.020, 386 185.350 C 390.223 186.195, 389.764 184.312, 385.250 182.276 C 378.332 179.154, 377 177.319, 377 170.907 C 377 167.748, 376.727 164.452, 376.393 163.582 C 375.416 161.036, 373 161.712, 373 164.531 C 373 168.492, 370.176 168.799, 367.319 165.149 C 365.087 162.297, 363 161.063, 363 162.596 M 289.534 204.957 C 285.504 210.008, 282.695 212.484, 279.278 213.995 C 272.980 216.781, 271 218.744, 271 222.200 C 271 225.229, 274.828 230, 277.259 230 C 278.001 230, 280.862 226.963, 283.617 223.250 C 286.372 219.537, 290.623 213.821, 293.063 210.546 C 300.825 200.132, 301.586 198, 297.543 198 C 295.700 198, 293.696 199.741, 289.534 204.957 M 205.667 199.667 C 204.186 201.147, 205.163 203.744, 207.983 205.830 C 211.983 208.787, 213.842 212.669, 215.561 221.657 C 216.353 225.792, 217 229.361, 217 229.588 C 217 229.815, 217.450 230, 218 230 C 218.550 230, 219 227.779, 219 225.065 C 219 219.213, 220.173 215.771, 223.528 211.784 C 224.888 210.168, 226 208.417, 226 207.892 C 226 206.113, 223.060 205.797, 221.454 207.403 C 219.169 209.688, 217.165 209.383, 214.674 206.371 C 208.846 199.324, 207.220 198.113, 205.667 199.667 M 366.771 206.750 C 365.925 207.713, 364.254 210.446, 363.058 212.825 C 361.463 215.996, 359.764 217.658, 356.691 219.053 C 354.386 220.100, 351.705 220.966, 350.733 220.978 C 349.150 220.998, 349.237 221.534, 351.567 226.131 C 353.888 230.712, 357.866 236.090, 358.082 234.939 C 358.127 234.697, 358.375 233.150, 358.633 231.500 C 359.393 226.634, 362.820 220.852, 368.212 215.337 C 372.452 211.001, 373.156 209.759, 372.611 207.587 C 371.850 204.554, 369.054 204.153, 366.771 206.750 M 144.381 216.910 C 140.721 219.141, 139 223.391, 139 230.199 C 139 236.458, 142.160 242.922, 145.250 242.985 C 145.662 242.993, 146 239.386, 146 234.968 C 146 223.208, 148.071 219.188, 153.750 219.925 C 155.730 220.182, 155.202 217.178, 153.066 216.035 C 150.247 214.527, 147.901 214.763, 144.381 216.910 M 393.478 243.026 C 388.880 244.742, 387.669 247.508, 388.287 254.879 C 388.801 261.019, 388.561 262.423, 386.099 267.639 C 380.129 280.287, 381.318 284.026, 392.109 286.539 C 395.655 287.364, 399.222 283.930, 401.498 277.500 C 403.263 272.513, 406.495 268, 408.302 268 C 410.270 268, 408.259 277.568, 405.215 282.683 C 401.339 289.197, 400.013 293.936, 400.006 301.300 C 399.999 307.652, 398.130 312.325, 394.904 314.051 C 391.902 315.658, 391.609 314.689, 393.942 310.863 C 396.679 306.375, 396.699 299.158, 393.984 295.707 C 392.876 294.298, 390.294 292.592, 388.248 291.917 C 386.201 291.241, 382.271 289.638, 379.513 288.354 C 376.475 286.939, 372.613 286.016, 369.708 286.010 C 362.221 285.995, 350.228 288.825, 341.865 292.580 C 337.666 294.465, 330.122 296.966, 325.101 298.137 C 315.833 300.299, 307.506 304.517, 306.299 307.663 C 305.203 310.518, 310.797 319.685, 315.877 323.359 C 324.379 329.509, 330.704 330.373, 342.500 327 C 351.547 324.413, 357.274 324.313, 356.823 326.750 C 356.645 327.712, 354.700 329.400, 352.500 330.500 C 349.167 332.167, 346.500 332.500, 336.500 332.500 C 325.614 332.500, 323.976 332.255, 318.860 329.856 C 315.758 328.401, 311.796 325.926, 310.056 324.356 C 305.786 320.501, 301.105 318.022, 299.360 318.692 C 297.624 319.358, 295 324.200, 295 326.738 C 295 330.878, 310.606 343.182, 320.767 347.053 C 336.315 352.975, 363.682 349.118, 382.871 338.299 C 386.517 336.244, 390.013 334.669, 390.641 334.800 C 391.268 334.930, 393.812 332.779, 396.293 330.019 C 406.522 318.642, 412.378 306.732, 416.166 289.602 C 417.767 282.360, 418.082 278.150, 417.706 269 C 417.209 256.921, 414.811 246.543, 412.692 247.296 C 412.037 247.529, 409.475 246.934, 407 245.974 C 399.674 243.133, 395.580 242.241, 393.478 243.026 M 96.290 245.543 C 92.752 247.306, 90.696 249.120, 89.586 251.460 C 85.461 260.153, 86.859 273.490, 93.229 286.217 L 97.244 294.238 101.578 293.644 C 106.441 292.978, 107.674 293.947, 105.793 296.959 C 103.413 300.771, 99.172 299.632, 93.531 293.667 C 86.282 286.001, 82.854 278.436, 81.903 268 C 81.146 259.698, 81.138 259.745, 81.573 270 C 82.489 291.601, 88.588 310.272, 99.449 324.721 C 104.302 331.177, 113.613 339.357, 115.078 338.452 C 115.544 338.164, 118.079 339.013, 120.713 340.339 C 123.346 341.665, 128.875 343.812, 133 345.110 C 137.125 346.408, 140.831 347.927, 141.235 348.485 C 141.701 349.129, 141.975 349.052, 141.985 348.275 C 141.996 347.348, 142.671 347.308, 144.750 348.108 C 146.262 348.691, 151.633 349.419, 156.684 349.727 C 174.161 350.791, 186.128 346.469, 198.731 334.541 L 206.171 327.500 204.121 322.750 C 202.993 320.137, 201.696 318, 201.238 318 C 200.781 318, 198.627 319.858, 196.453 322.128 C 188.613 330.315, 177.425 336.114, 175.494 332.991 C 173.635 329.983, 178.305 326, 183.692 326 C 189.479 326, 198 318.223, 198 312.941 C 198 310.107, 191.668 303.980, 185.855 301.189 C 177.403 297.130, 160.817 296.566, 139.353 299.608 C 134.023 300.364, 129.518 303.131, 126.928 307.241 C 123.112 313.297, 125.725 330, 130.488 330 C 131.281 330, 133.409 328.727, 135.215 327.172 C 137.022 325.616, 140.525 323.551, 143 322.583 C 148.833 320.300, 150 319.265, 150 316.378 C 150 313.692, 152.109 313.221, 153.989 315.487 C 155.946 317.844, 154.397 321.865, 151.235 322.637 C 146.586 323.773, 137.972 328.184, 137.054 329.899 C 134.701 334.296, 142.138 341.989, 148.750 341.996 C 150.537 341.998, 152 342.450, 152 343 C 152 344.714, 147.324 344.104, 140.273 341.470 C 126.021 336.145, 117.072 326.915, 116.222 316.663 C 115.760 311.090, 117.705 306.155, 123.539 298.102 C 124.892 296.233, 126 293.980, 126 293.095 C 126 292.211, 123.530 287.101, 120.510 281.742 C 113.202 268.770, 111.109 262.226, 111.738 254.320 C 112.187 248.681, 112.005 247.914, 109.661 245.570 C 106.383 242.292, 102.828 242.285, 96.290 245.543 M 282.280 275.946 C 275.497 280.133, 270.972 289.572, 274.200 292.800 C 276.295 294.895, 277.928 294.111, 279.509 290.250 C 280.354 288.188, 283.325 284.370, 286.112 281.766 C 288.898 279.162, 290.990 276.462, 290.762 275.766 C 290.088 273.714, 285.747 273.806, 282.280 275.946 M 202.619 286.808 C 201.873 288.015, 204.623 290.411, 216.468 298.876 C 221.951 302.794, 227.452 306, 228.692 306 C 230.179 306, 231.469 304.994, 232.474 303.050 C 235.410 297.372, 233.774 292.084, 230.108 295.402 C 229.137 296.281, 227.195 297, 225.792 297 C 223.339 297, 214.509 292.881, 206.838 288.160 C 204.824 286.921, 202.925 286.312, 202.619 286.808 M 351.144 304.551 C 344.309 306.417, 344 306.633, 344 309.540 C 344 312.725, 347.608 313.650, 353.547 311.987 C 357.545 310.868, 358.652 310.970, 364.113 312.961 C 372.186 315.904, 373.532 314.781, 369.811 308.211 C 367.191 303.583, 367.050 303.496, 361.822 303.294 C 358.895 303.181, 354.090 303.746, 351.144 304.551 M 270.608 403.500 C 269.232 411.501, 268.415 421.861, 269.198 421.378 C 269.639 421.105, 270 419.191, 270 417.125 C 270 415.058, 270.478 410.781, 271.062 407.621 C 271.647 404.460, 271.938 401.340, 271.710 400.687 C 271.482 400.034, 270.986 401.300, 270.608 403.500 M 229.693 411.500 C 229.995 415.900, 230.413 419.688, 230.622 419.917 C 231.297 420.660, 230.875 412.624, 229.997 408 C 229.354 404.617, 229.279 405.486, 229.693 411.500" stroke="none" fill="#eda990" fill-rule="evenodd"/></svg>