<svg xmlns="http://www.w3.org/2000/svg" width="999" height="1078" viewBox="0 0 999 1078" version="1.1"><path d="M 490.355 42.977 C 484.273 44.272, 476.657 48.433, 473.471 52.201 C 471.936 54.015, 469.316 58.406, 467.649 61.958 C 464.853 67.912, 464.594 69.397, 464.328 80.958 C 464.169 87.856, 464.030 93.668, 464.020 93.872 C 464.009 94.077, 463.314 93.676, 462.476 92.980 C 460.250 91.133, 459.630 92.347, 459.251 99.288 C 458.761 108.269, 460.744 114.978, 464.628 117.483 C 467.260 119.180, 467.853 120.309, 468.369 124.599 C 468.706 127.403, 469.709 131.678, 470.597 134.099 C 471.734 137.198, 472.254 142.317, 472.356 151.403 L 472.500 164.307 465.500 169.717 C 461.650 172.693, 453.530 177.583, 447.455 180.584 C 438.309 185.102, 435.037 186.197, 428.427 186.951 C 419.640 187.954, 411.899 190.522, 402 195.721 C 389.958 202.044, 382.431 211.739, 378.492 226 C 376.274 234.028, 375.990 253.651, 377.913 266 C 379.198 274.251, 379.154 274.822, 376.405 285.500 C 373.220 297.874, 372.730 310.320, 374.396 336.549 C 375.379 352.025, 374.470 361.540, 370.675 375.500 C 368.692 382.795, 368.506 385.791, 368.570 409.500 C 368.615 425.836, 369.316 443.119, 370.456 456 C 371.907 472.387, 372.153 481.825, 371.682 503.045 C 370.882 539.068, 372.013 545.872, 381.654 563.047 C 388.924 575.998, 397.105 583.818, 400.466 581.028 C 402.690 579.183, 402.352 575.785, 399.557 571.898 C 386.974 554.395, 387 554.448, 387 545.975 C 387 541.079, 387.439 537.847, 388.164 537.399 C 389.570 536.530, 393.998 541.389, 394.004 543.806 C 394.009 546.285, 397.556 551.692, 400.054 553.029 C 403.752 555.008, 404.272 552.933, 402.127 544.743 C 400.546 538.707, 400.262 535.289, 400.715 527.709 C 401.280 518.226, 401.280 518.226, 396.702 508.363 C 389.172 492.140, 388.799 485.060, 394.551 467.440 C 398.358 455.779, 403.566 437.350, 405.838 427.500 C 409.854 410.094, 410.327 404.568, 409.386 386 C 408.033 359.281, 408.335 345.140, 410.340 341.288 C 412.593 336.961, 415.810 323.177, 416.598 314.477 C 417.249 307.294, 419.213 302.779, 420.915 304.554 C 422.011 305.696, 426.998 327.774, 430.052 345 C 432.578 359.247, 432.429 366.563, 429.019 395.763 C 426.988 413.163, 425.200 422.229, 420.647 438.217 C 417.909 447.835, 415.570 462.389, 410.960 498.500 C 406.006 537.308, 406.830 555.610, 416.426 620 C 420.890 649.950, 420.781 648.881, 421.572 670.500 C 422.065 683.985, 421.852 689.464, 420.542 697 C 411.420 749.482, 410.931 753.619, 412.090 768.528 C 413.249 783.431, 417.198 815.172, 422.039 848.500 C 423.275 857.010, 423.350 885.122, 422.150 890.091 C 421.089 894.481, 415.478 904.220, 408.824 913.219 C 403.352 920.621, 395.825 926.748, 384.586 932.952 C 373.729 938.946, 371.405 943.639, 376.975 948.325 C 378.611 949.702, 381.648 951.372, 383.725 952.037 C 385.801 952.702, 388.440 954.102, 389.590 955.147 C 392.757 958.027, 397.761 959.142, 402.182 957.951 C 407.733 956.456, 417.907 949.112, 422.500 943.283 C 427.054 937.504, 428.830 936.421, 442 931.391 C 447.225 929.395, 452.512 926.837, 453.750 925.707 C 456.882 922.846, 456.636 918.558, 452.777 908.718 C 449.031 899.169, 448.925 895.266, 451.516 862.500 C 453.499 837.430, 456.308 821.030, 461.022 807 C 467.565 787.525, 468.861 775.087, 466.595 753.500 C 465.729 745.250, 464.561 732.879, 464 726.009 C 463.007 713.845, 463.045 713.359, 465.450 707.509 C 468.536 700.003, 471.762 683.472, 472.576 671 C 472.917 665.775, 473.661 659.700, 474.230 657.500 C 476.672 648.056, 481.809 621.380, 485.109 601 C 487.752 584.680, 494.010 539.852, 495.859 524 C 496.500 518.503, 496.502 518.500, 500 518.500 C 503.338 518.500, 503.486 518.648, 503.191 521.715 C 502.219 531.816, 506.399 558.015, 514.033 589.667 C 516.266 598.925, 518.772 609.329, 519.602 612.787 C 520.433 616.245, 521.528 623.895, 522.037 629.787 C 523.180 643.026, 524.971 654.247, 528.934 673 C 530.619 680.975, 533.389 696.050, 535.090 706.500 C 538.526 727.617, 538.498 732.637, 534.847 749.821 C 531.445 765.836, 532.989 780.511, 541.957 817.364 C 546.950 837.885, 549.336 854.071, 549.051 865.500 C 548.718 878.835, 548.702 892.309, 549.012 898.283 C 549.204 901.986, 548.645 905.014, 547.143 908.410 C 544.285 914.871, 544.379 919.770, 547.441 923.920 C 550.515 928.086, 552.623 929.554, 556.860 930.476 C 558.708 930.878, 562.662 932.287, 565.647 933.607 C 570.219 935.630, 571.366 936.689, 572.928 940.333 C 575.349 945.980, 581.593 951.222, 589.855 954.541 C 596.732 957.305, 602.477 957.874, 605.661 956.108 C 606.673 955.546, 610.085 954.381, 613.244 953.517 C 620.135 951.634, 622.552 948.790, 621.465 943.842 C 620.658 940.167, 610.473 929.541, 600.038 921.487 C 590.919 914.450, 584.324 905.513, 579.806 894.070 C 575.148 882.275, 574.956 858.657, 579.370 840.500 C 585.422 815.604, 587.884 794.406, 588.663 760.500 C 589.186 737.724, 588.999 732.392, 587.155 717.500 C 584.099 692.817, 583.066 680.677, 582.350 661 C 581.660 642.063, 582.463 633.213, 586.521 615 C 591.489 592.704, 592.435 581.125, 592.402 543 C 592.374 510.786, 592.165 506.343, 590.144 495 C 588.122 483.645, 584.313 464.721, 581.995 454.500 C 581.495 452.300, 580.149 446.315, 579.002 441.199 C 577.855 436.084, 576.488 426.409, 575.963 419.699 C 575.439 412.990, 574.098 401.200, 572.983 393.500 C 571.869 385.800, 570.479 376.125, 569.894 372 C 568.639 363.142, 569.382 350.712, 572.076 335.509 C 574.391 322.446, 578.668 305.927, 580.102 304.510 C 581.886 302.748, 583.395 306.956, 585.199 318.713 C 586.144 324.881, 588.171 333.431, 589.703 337.713 C 592.773 346.301, 592.796 346.862, 591.925 391.500 C 591.551 410.638, 591.655 412.017, 594.348 423.500 C 597.801 438.224, 600.852 449.261, 605.890 465.246 C 608.014 471.986, 610.057 479.614, 610.430 482.198 C 611.428 489.124, 609.384 498.261, 604.673 507.934 C 600.500 516.500, 600.500 516.500, 600.372 529 C 600.289 537.064, 599.685 543.423, 598.668 546.920 C 596.447 554.554, 597.613 555.880, 602.747 551.559 C 604.364 550.198, 606.212 547.212, 606.923 544.809 C 608.325 540.069, 610.578 537, 612.655 537 C 613.681 537, 613.995 539.078, 613.981 545.750 L 613.962 554.500 608.030 562.500 C 600.149 573.129, 598.726 575.771, 599.410 578.497 C 602.073 589.108, 619.928 568.463, 627.083 546.500 C 629.283 539.747, 629.369 538.141, 629.522 501 C 629.624 476.139, 630.167 458.072, 631.054 450 C 631.870 442.574, 632.443 426.337, 632.464 410 C 632.497 384.572, 632.335 381.935, 630.306 375 C 626.876 363.279, 625.655 352.138, 626.374 339.122 C 628.389 302.614, 628.384 302.359, 625.421 289.500 C 622.264 275.797, 622.087 272.198, 623.921 259 C 625.447 248.014, 624.824 233.496, 622.441 224.500 C 620.392 216.767, 613.872 204.560, 609.177 199.668 C 600.508 190.634, 589.600 186.808, 573.472 187.143 C 563.872 187.343, 561.812 187.086, 557.952 185.211 C 548.554 180.645, 530.416 167.091, 527.262 162.277 C 525.273 159.242, 525.998 140.219, 528.302 134.957 C 529.156 133.008, 530.166 128.659, 530.546 125.292 C 531.074 120.629, 531.663 119.060, 533.018 118.706 C 535.874 117.959, 537.839 113.977, 539.164 106.251 C 540.612 97.804, 539.685 93.676, 536.230 93.180 C 534.115 92.877, 534 92.404, 534 83.980 C 534 68.823, 531.369 60.610, 523.926 52.536 C 516.610 44.598, 502.118 40.472, 490.355 42.977" stroke="none" fill="#2d5c74" fill-rule="evenodd"/></svg>