<svg xmlns="http://www.w3.org/2000/svg" width="980" height="980" viewBox="0 0 980 980" version="1.1"><path d="M 639.664 142.518 C 608.522 151.246, 583.064 176.346, 571.838 209.393 C 562.979 235.471, 562.898 261.242, 571.592 287.878 C 574.558 296.965, 574.613 301.285, 571.859 308.649 C 569.824 314.085, 563.307 320.780, 441.964 442.075 C 321.342 562.650, 313.896 569.895, 308.568 571.889 C 301.286 574.613, 296.943 574.551, 287.878 571.592 C 251.799 559.816, 213.455 564.514, 183.681 584.360 C 143.345 611.247, 128.713 659.084, 148.463 699.500 C 161.914 727.027, 189.050 746.644, 223.067 753.434 C 225.410 753.902, 225.862 754.866, 228.238 764.470 C 234.393 789.343, 250.112 812.587, 269.463 825.432 C 290.081 839.117, 315.635 843.579, 339.185 837.605 C 365.955 830.814, 388.979 811.428, 402.345 784.423 C 411.529 765.868, 414.477 752.872, 414.465 731 C 414.455 714.911, 413.720 709.791, 409.307 695.092 C 406.413 685.453, 406.469 677.993, 409.484 671.500 C 410.776 668.718, 450.033 628.757, 538.421 540.252 C 676.959 401.529, 671.049 407, 682.358 407 C 685.129 407, 691.020 408.087, 695.448 409.416 C 709.769 413.712, 715.003 414.455, 731 414.465 C 742.198 414.471, 748.846 413.972, 754.953 412.665 C 796.583 403.759, 828.400 375.473, 837.605 339.185 C 840.758 326.754, 840.906 310.337, 837.974 298.107 C 829.602 263.186, 798.967 235.452, 759.422 226.994 L 754.344 225.908 751.653 215.279 C 747.365 198.346, 738.271 181.104, 727.021 168.580 C 717.472 157.948, 698.350 146.161, 684.500 142.369 C 680.570 141.293, 673.325 140.608, 663.500 140.384 C 649.966 140.076, 647.637 140.284, 639.664 142.518 M 647.500 157.423 C 622.947 163.079, 602.232 180.901, 590.371 206.573 C 584.333 219.641, 581.817 231.388, 581.711 247 C 581.611 261.714, 582.567 268.100, 587.053 282.672 C 591.645 297.591, 590.776 309.429, 584.240 321 C 580.963 326.800, 330.643 577.655, 323.104 582.694 C 311.276 590.600, 298.625 591.963, 282.672 587.053 C 268.100 582.567, 261.714 581.611, 247 581.711 C 236.019 581.785, 231.705 582.270, 223.881 584.310 C 189.280 593.332, 163.918 617.638, 157.425 648 C 149.239 686.279, 176.174 724.669, 218.936 735.670 C 226.916 737.723, 231.456 738.191, 246.346 738.498 C 266.630 738.915, 281.846 739.943, 282.461 740.937 C 283.699 742.940, 260.544 754.620, 250.184 757.217 C 247.608 757.864, 245.130 758.697, 244.677 759.069 C 242.659 760.729, 249.636 778.423, 256.523 789.114 C 265.891 803.656, 280.908 815.440, 296.645 820.598 C 304.611 823.209, 306.806 823.497, 318.500 823.469 C 330.078 823.442, 332.375 823.135, 339.500 820.661 C 364.477 811.992, 384.170 791.182, 393.322 763.787 C 400.239 743.084, 400.405 723.766, 393.869 700.522 C 391.203 691.042, 390.835 688.313, 391.178 680.522 C 391.510 672.940, 392.094 670.382, 394.830 664.500 C 397.967 657.756, 402.835 652.754, 527.793 527.868 C 650.345 405.386, 657.881 398.052, 664.398 394.907 C 670.311 392.055, 672.604 391.522, 680.441 391.179 C 688.366 390.833, 690.994 391.183, 700.137 393.804 C 723.416 400.477, 743.819 400.193, 765.139 392.898 C 780.045 387.797, 791.625 380.338, 802.640 368.742 C 811.063 359.875, 816.833 350.519, 820.672 339.500 C 823.189 332.275, 823.460 330.191, 823.460 318 C 823.460 305.793, 823.192 303.733, 820.664 296.500 C 811.954 271.576, 790.066 252.228, 761.721 244.399 C 753.930 242.247, 749.864 241.792, 735.500 241.471 C 711.815 240.940, 696 239.949, 696 238.996 C 696 237.803, 704.523 232.370, 711.748 228.957 C 715.220 227.316, 721.958 224.844, 726.720 223.464 C 731.482 222.084, 735.598 220.735, 735.868 220.466 C 736.740 219.593, 732.891 208.708, 728.807 200.500 C 718.695 180.175, 703.079 166.007, 683.500 159.394 C 673.745 156.099, 657.183 155.192, 647.500 157.423" stroke="none" fill="#363636" fill-rule="evenodd"/></svg>